<?xml version="1.0" encoding="utf-8"?>
<!-- Generator: Adobe Illustrator 19.0.0, SVG Export Plug-In . SVG Version: 6.00 Build 0)  -->
<svg version="1.1" id="Layer_1" xmlns="http://www.w3.org/2000/svg" xmlns:xlink="http://www.w3.org/1999/xlink" x="0px" y="0px"
	 viewBox="0 0 96 96" style="enable-background:new 0 0 96 96;" xml:space="preserve">
<style type="text/css">
	.st0{fill:#333333;}
</style>
<g id="XMLID_7_">
	<path id="XMLID_13_" class="st0" d="M45.2,62h5.6V45.2h-5.6V62z M48,20c-15.5,0-28,12.5-28,28s12.5,28,28,28s28-12.5,28-28
		S63.5,20,48,20z M48,70.4c-12.3,0-22.4-10.1-22.4-22.4c0-12.3,10.1-22.4,22.4-22.4c12.3,0,22.4,10.1,22.4,22.4
		C70.4,60.3,60.3,70.4,48,70.4z M45.2,39.6h5.6V34h-5.6V39.6z"/>
</g>
</svg>
