<svg width="16" height="20" viewBox="0 0 16 20" xmlns="http://www.w3.org/2000/svg"><title>Logo</title><g fill="#46494D" fill-rule="evenodd"><path d="M1.944 7.177c1.163-.197 3.76 3.71 1.457 5.733C1.1 14.934-.227 11.87.08 10.593c.31-1.278.7-3.22 1.864-3.416zM1.26 7.106c.124.31.33-.296.546-.296.217 0 .682.128.682.128s-.312-1.404-.523-1.572c-.21-.168-.83 1.43-.705 1.74zM5.75 1.482c.014.25.917.182.917.182S6.787.588 6.68.416c-.11-.17-.942.815-.93 1.066zM13.706 7.056c-1.09.172-4.158 5.51-1.436 6.59 2.722 1.083 3.238-.898 3.616-2.066.377-1.167-1.09-4.695-2.18-4.524zM14.207 6.76c-.05.282-.33-.188-.51-.15-.182.04-.548.23-.548.23s.01-1.23.157-1.41c.147-.177.95 1.05.9 1.33z"/><path d="M1.41 15.933c.208-.618 1.322-1.65 2.388-2.773.62-.653 1.234-1.474 1.615-1.906 1.036-1.175 2.88-1.667 4.402 0 1.52 1.667.602 1.74 2.068 2.773 1.466 1.034 2.196 2.13 2.196 3.132 0 1-.87 2.64-2.672 2.64-1.803 0-2.096-.683-3.684-.683s-1.666.873-3.226.873-1.99-.49-2.46-.873-.955-2.207-.627-3.184zM3.21 5.126c0 1.257.505 3.44 2.098 3.44s1.903-.54 1.903-1.038c0-.497 0-5.664-.967-5.664-.968 0-3.032 2.005-3.032 3.262zM10.063 1.764c-.055.222-1.08-.07-1.08-.07s.08-.99.207-1.124c.128-.135.93.97.873 1.194z"/><path d="M12.055 5.898c0 1.813-.637 3.038-2.23 3.038s-1.473-.87-1.67-1.29c-.2-.417-.06-1.183 0-2.657.06-1.49.014-2.32.663-2.825 1.148-.895 3.237 1.92 3.237 3.733z"/></g></svg>