<svg width="34" height="29" viewBox="0 0 34 29" xmlns="http://www.w3.org/2000/svg">
  <g fill="green" fill-rule="evenodd">
    <ellipse cx="6.69" cy="9.13" rx="1.34" ry="1.34"/>
    <ellipse cx="12.05" cy="13.96" rx="1.34" ry="1.34"/>
    <ellipse cx="18.47" cy="18.26" rx="1.34" ry="1.34"/>
    <ellipse cx="23.56" cy="14.5" rx="1.34" ry="1.34"/>
    <ellipse cx="26.77" cy="7.79" rx="1.34" ry="1.34"/>
    <ellipse cx="18.47" cy="9.94" rx="1.34" ry="1.34"/>
    <ellipse cx="11.24" cy="2.69" rx="1.34" ry="1.34"/>
    <ellipse cx="3.48" cy="5.91" rx="1.34" ry="1.34"/>
    <ellipse cx="4.82" cy="14.5" rx="1.34" ry="1.34"/>
    <ellipse cx="11.24" cy="20.94" rx="1.34" ry="1.34"/>
    <ellipse cx="24.09" cy="20.94" rx="1.34" ry="1.34"/>
    <ellipse cx="31.32" cy="11.28" rx="1.34" ry="1.34"/>
    <ellipse cx="27.31" cy="3.22" rx="1.34" ry="1.34"/>
    <ellipse cx="21.42" cy="4.03" rx="1.34" ry="1.34"/>
    <path d="M17.27 28.7l.18-.13.52-.38 1.84-1.4c1.9-1.5 3.8-3.1 5.6-4.7 1.8-1.6 3.3-3.2 4.6-4.7 2.4-2.8 3.7-5.2 3.8-7.2.2-3.4-1.1-6-3.5-7.6-2-1.4-4.5-1.8-6.6-1.3-1.5.3-3 1.2-4.3 2.5-.6.6-1.1 1.2-1.6 1.8-.3.3-.5.6-.6.8H19c-.13-.2-.36-.6-.7-1-.53-.8-1.14-1.5-1.8-2.2-2.2-2-4.4-3.3-6.7-3.1-4.3.2-8.32 3-8.97 5.6l-.2.7c-.5 1.7-.5 3.1.2 5 .96 2.4 3.1 5.1 6.77 8.2s5.97 5.3 7.2 6.8c.4.5.65.9.76 1.1l.03.1c-.1 0-.1-.1 0-.2v-.2c-.4 1 .7 1.86 1.6 1.25zm-1.24-1.76l1.62 1.27.06-.2c.3-1.3-1.9-4.1-8.7-9.8-3.4-2.8-5.3-5.2-6.1-7.3-.5-1.4-.5-2.4-.1-3.6l.2-.8c.2-.6 1-1.6 2.1-2.3 1.4-.9 3.1-1.5 4.9-1.6 1.6-.1 3.3.9 5 2.6.6.6 1.1 1.3 1.6 1.9.2.2.3.5.5.6l.2.2c.4.7 1.4.7 1.8.1l.1-.2.4-.5c.4-.5.9-1 1.4-1.5 1.1-1 2.27-1.7 3.4-2 1.56-.3 3.5 0 4.98 1.1C31 6 32 8 31.9 10.5c-.04 1.45-1.2 3.5-3.2 5.9-1.2 1.4-2.7 2.9-4.4 4.44-1.77 1.6-3.6 3.1-5.5 4.58-.6.5-1.2.96-1.8 1.36l-.5.37-.13.1z"/>
    <path d="M4.8 15.35l.06-.17.13-.46c.1-.5.3-1.07.5-1.67C6.1 11.33 6.8 9.6 7.6 8c1.34-2.82 2.78-4.97 4.3-6.18l-.34-.42C9.94 2.67 8.46 4.88 7.1 7.76c-.78 1.63-1.47 3.37-2.07 5.12-.2.6-.4 1.17-.55 1.68l-.14.47-.05.17.5.15z"/>
    <path d="M2.74 5l.16.2.46.54c.5.6 1.1 1.24 1.75 1.95 1.9 2 4 4 6.2 5.8 4.3 3.6 8.6 6.3 12.7 7.6l.2-.5c-4-1.4-8.3-4-12.5-7.6-2.2-1.8-4.3-3.8-6.2-5.8L3.8 5.3l-.42-.6-.1-.2-.4.35z"/>
    <path d="M9.9 21.1h.04c.25 0 .6 0 1.04-.04.65-.04 1.36-.13 2.1-.28 2.07-.4 4.12-1.13 6.03-2.3 4.8-2.88 8-7.9 9-15.5l-.5-.06c-.9 7.44-4 12.3-8.6 15.1-1.9 1.13-3.9 1.85-5.9 2.23-.7.14-1.4.23-2 .28-.4.03-.7.04-1 .03H10v.54z"/>
    <path d="M6.6 9.53c.03-.03.12-.1.26-.18.24-.14.53-.28.86-.4 2.63-1.08 6.06-.92 10.2 1.35 2.86 1.57 4.63 2.76 5.5 3.63.33.3.5.55.57.73v.08l-.1.1v.14l.4 6.8.5-.04-.4-6.8-.1.24.1-.12c.5-.8-1.1-2.38-6.3-5.23-4.2-2.33-7.8-2.53-10.6-1.4-.4.15-.7.3-.9.46l-.4.2.3.4zm-2.44 5.5c.1.06.32.15.62.23 1.7.46 4.08.26 7.1-1.05l-.2-.4c-2.92 1.3-5.18 1.5-6.76 1l-.4-.1h-.1l-.26.5z"/>
    <path d="M12.74 13.82l.1-.06.27-.2 1.1-.68c1.1-.7 2.3-1.42 3.5-2.08 1.4-.76 2.7-1.4 4-1.9 2.1-.8 3.9-1.2 5.3-1.1 2.1.17 3.1.92 3.4 2.07.2.55.1 1.14 0 1.7l-.1.33v.1c0 .05-.1.17-.3.33-.3.3-.7.58-1.3.86-1 .4-2.3.8-4 1l.1.5c1.78-.3 3.16-.6 4.2-1.1.7-.3 1.18-.7 1.5-1 .25-.2.37-.4.4-.5.07-.1.14-.3.2-.5.18-.7.23-1.4.07-2-.32-1.4-1.55-2.3-3.84-2.5-1.5-.2-3.3.3-5.42 1.1-1.3.5-2.64 1.1-4.04 1.9-1.2.6-2.4 1.4-3.5 2.1L13 13c-.1.08-.2.14-.26.2-.06.03-.1.05-.1.07l.3.4z"/>
    <path d="M17.86 6.22c0 .03 0 .1.03.18v.5c.1.55.1 1.18.2 1.87.4 3.64.4 7.43.1 10.98-.3 2.63-.9 4.96-1.7 6.9l.5.22c.8-2 1.4-4.4 1.7-7.06.4-3.5.3-7.4-.1-11.1l-.3-1.8-.1-.5v-.2l-.6.1zm3.4-1.97l5.25 3.3.3-.44-5.2-3.3"/>
  </g>
</svg>
