<svg width="40" height="40" viewBox="0 0 40 40" xmlns="http://www.w3.org/2000/svg"><title>twitter-logo</title><path d="M38 8.463c-1.325.588-2.748.985-4.24 1.163 1.522-.914 2.694-2.362 3.246-4.086-1.428.846-3.008 1.46-4.69 1.793C30.97 5.897 29.05 5 26.927 5c-4.08 0-7.388 3.306-7.388 7.385 0 .58.066 1.143.19 1.683-6.137-.308-11.58-3.25-15.222-7.716-.636 1.09-1 2.36-1 3.713 0 2.562 1.304 4.824 3.286 6.147-1.21-.038-2.35-.37-3.346-.924v.093c0 3.58 2.545 6.564 5.925 7.243-.62.17-1.272.26-1.946.26-.475 0-.938-.048-1.39-.133.94 2.934 3.668 5.07 6.9 5.13-2.528 1.98-5.712 3.16-9.172 3.16-.597 0-1.184-.036-1.762-.103 3.27 2.097 7.15 3.318 11.32 3.318 13.585 0 21.015-11.254 21.015-21.014 0-.32-.01-.638-.022-.953C35.757 11.244 37.01 9.943 38 8.46" fill="#5D9EC9" fill-rule="evenodd"/></svg>