<svg width="40" height="40" viewBox="0 0 40 40" xmlns="http://www.w3.org/2000/svg"><title>youtube-logo</title><defs><linearGradient x1="50%" y1="0%" x2="50%" y2="100%" id="a"><stop stop-color="#E52D28" offset="0%"/><stop stop-color="#BF2026" offset="100%"/></linearGradient></defs><g fill="none" fill-rule="evenodd"><path fill="#FFF" d="M15.86 25.267l10.802-5.597-10.802-5.636"/><path fill="#E8E0E0" d="M25.333 20.36l1.33-.69-1.33.69"/><path fill="#E7E0E0" d="M25.332 20.36l-9.472-6.326 10.802 5.636"/><path d="M15.862 19.267L15.86 8.034l10.802 5.636-10.8 5.597zM39.58 6.09s-.39-2.756-1.59-3.97C36.47.528 34.766.52 33.984.427 28.39.023 19.998.023 19.998.023h-.017s-8.39 0-13.985.404C5.215.52 3.51.527 1.99 2.12.79 3.334.4 6.09.4 6.09S0 9.323 0 12.56v3.032c0 3.235.4 6.47.4 6.47s.39 2.755 1.588 3.968c1.52 1.593 3.52 1.542 4.41 1.71 3.197.306 13.59.4 13.59.4s8.402-.012 13.996-.416c.782-.093 2.486-.1 4.006-1.694 1.2-1.213 1.59-3.968 1.59-3.968s.398-3.235.398-6.47V12.56c0-3.236-.4-6.47-.4-6.47h.002z" fill="url(#a)" transform="translate(0 6)"/></g></svg>