<?xml version="1.0" standalone="no"?>
<!DOCTYPE svg PUBLIC "-//W3C//DTD SVG 20010904//EN"
 "http://www.w3.org/TR/2001/REC-SVG-20010904/DTD/svg10.dtd">
<svg version="1.0" xmlns="http://www.w3.org/2000/svg"
 width="750.000000pt" height="750.000000pt" viewBox="0 0 750.000000 750.000000"
 preserveAspectRatio="xMidYMid meet">
<metadata>
Created by potrace 1.11, written by Peter Selinger 2001-2013
</metadata>
<g transform="translate(0.000000,750.000000) scale(0.100000,-0.100000)"
fill="#000000" stroke="none">
<path d="M3200 7333 c-32 -21 -140 -132 -177 -180 -15 -21 -31 -40 -34 -43
-18 -14 -79 -140 -79 -163 0 -30 30 -49 95 -62 58 -11 234 -14 241 -4 9 15 14
77 20 249 8 212 -3 244 -66 203z"/>
<path d="M4191 7277 c-20 -24 -50 -189 -66 -354 l-5 -62 37 -8 c21 -4 40 -8
43 -8 3 -1 16 -5 30 -8 48 -13 86 -18 167 -24 66 -4 87 -2 107 10 22 15 24 20
14 54 -18 67 -98 197 -187 303 -64 77 -73 86 -98 99 -27 14 -28 14 -42 -2z"/>
<path d="M3017 6794 c-2 -3 -14 -6 -26 -9 -62 -12 -222 -98 -330 -178 -142
-105 -360 -318 -429 -419 -9 -13 -19 -25 -22 -28 -24 -19 -180 -274 -180 -294
0 -7 -4 -16 -8 -21 -14 -16 -50 -126 -59 -180 -18 -105 3 -382 42 -542 3 -13
7 -31 9 -41 40 -175 117 -363 204 -492 61 -91 166 -189 249 -233 60 -31 91
-42 188 -63 24 -5 201 -4 265 1 283 25 461 117 515 266 17 49 19 77 16 294 -4
331 -7 400 -16 415 -6 9 -4 11 5 5 8 -5 11 -4 7 1 -3 6 -9 71 -12 145 -4 73
-8 159 -11 189 -2 30 -6 84 -9 120 -8 115 -20 223 -36 345 -6 44 -13 94 -15
110 -2 17 -6 41 -9 55 -3 14 -10 52 -16 85 -26 146 -84 328 -116 366 -7 8 -13
19 -13 23 0 4 -16 24 -35 44 -31 34 -39 37 -94 39 -32 1 -61 0 -64 -3z"/>
<path d="M4135 6732 c-52 -21 -57 -26 -129 -97 -34 -34 -73 -86 -88 -117 -32
-65 -65 -181 -73 -258 -3 -30 -8 -68 -10 -85 -6 -38 -13 -169 -21 -365 -3 -85
-7 -182 -9 -215 -1 -33 -6 -121 -10 -195 -4 -74 -8 -155 -10 -180 -2 -25 -6
-135 -9 -245 -5 -153 -2 -214 8 -260 16 -67 62 -210 77 -237 5 -10 9 -24 9
-33 0 -17 37 -91 60 -119 59 -72 129 -114 245 -147 108 -31 371 -33 480 -5
171 45 301 129 400 261 86 115 154 290 189 487 20 115 28 470 12 543 -3 17 -9
41 -12 55 -3 14 -8 35 -10 48 -8 39 -55 185 -76 232 -64 145 -85 189 -105 222
-13 21 -23 42 -23 48 0 5 -4 10 -10 10 -5 0 -10 9 -10 19 0 11 -3 21 -7 23
-10 4 -53 65 -53 74 0 4 -23 38 -52 77 -162 218 -295 342 -452 421 -98 50 -92
48 -191 52 -58 2 -91 -1 -120 -14z"/>
<path d="M1430 5459 c-29 -32 -120 -207 -120 -232 0 -7 -4 -17 -9 -22 -14 -15
-69 -204 -77 -260 -3 -27 -8 -53 -10 -56 -8 -14 18 -78 34 -82 11 -2 41 21 87
68 64 66 74 72 108 71 20 0 37 -3 37 -6 0 -3 19 -6 42 -7 23 -2 56 -7 73 -12
16 -5 43 -12 58 -16 27 -5 28 -4 23 22 -4 15 -8 37 -11 48 -2 11 -8 35 -14 53
-5 17 -7 32 -4 32 3 0 1 6 -4 13 -6 6 -14 30 -18 52 -11 66 -84 277 -111 322
-14 24 -32 43 -40 43 -8 0 -28 -14 -44 -31z"/>
<path d="M5736 5447 c-9 -12 -18 -40 -21 -62 -4 -22 -8 -51 -11 -65 -10 -50
-26 -380 -19 -380 3 0 13 4 23 10 9 5 37 18 62 28 109 47 147 49 187 13 10 -9
36 -27 57 -41 36 -22 40 -22 52 -6 24 34 -4 121 -85 263 -59 105 -191 263
-219 263 -6 0 -18 -10 -26 -23z"/>
<path d="M5855 4842 c-73 -28 -201 -136 -281 -238 -16 -20 -34 -42 -39 -48
-45 -48 -215 -307 -215 -326 0 -5 -3 -10 -7 -10 -5 0 -13 -10 -19 -23 -6 -12
-35 -71 -66 -132 -100 -201 -179 -390 -194 -470 -3 -20 -10 -38 -15 -41 -5 -3
-9 -16 -9 -30 0 -14 -5 -34 -10 -44 -6 -10 -12 -34 -14 -52 -3 -18 -5 -33 -6
-33 -3 0 -12 -49 -28 -155 -11 -77 -7 -322 7 -380 25 -105 53 -173 104 -255
26 -43 135 -142 187 -172 55 -31 198 -92 234 -99 10 -2 33 -8 50 -14 39 -13
159 -40 206 -46 69 -10 246 -6 290 6 25 7 50 13 55 14 36 7 99 34 153 67 125
76 228 200 313 375 34 71 82 189 93 229 2 6 8 23 14 38 7 16 12 33 12 38 0 5
9 35 20 67 31 88 34 109 34 232 0 101 -5 162 -20 235 -3 11 -7 36 -10 55 -3
19 -22 89 -41 155 -19 66 -36 127 -38 136 -2 9 -8 25 -13 35 -6 11 -25 57 -42
104 -41 108 -110 253 -169 353 -25 43 -50 86 -56 96 -11 18 -80 114 -105 145
-34 42 -117 120 -154 145 -80 54 -155 69 -221 43z"/>
<path d="M1415 4792 c-76 -28 -134 -68 -198 -136 -82 -86 -180 -254 -231 -395
-45 -126 -94 -278 -111 -351 -2 -8 -15 -60 -29 -115 -15 -55 -28 -109 -31
-120 -2 -11 -6 -30 -9 -42 -15 -58 -18 -72 -30 -133 -26 -135 3 -369 66 -534
54 -140 135 -275 216 -361 35 -37 127 -115 137 -115 4 0 19 -8 33 -19 49 -34
160 -62 247 -61 68 0 120 4 120 10 0 1 8 3 17 5 86 16 201 74 316 158 151 111
267 245 340 394 42 86 58 136 78 233 3 14 9 43 14 65 10 43 6 317 -5 375 -15
79 -46 202 -66 262 -27 81 -80 209 -93 227 -5 7 -11 19 -12 25 -1 7 -14 31
-28 54 -14 23 -26 44 -26 47 0 7 -117 184 -133 200 -7 7 -28 32 -47 56 -83
103 -202 204 -294 249 -84 41 -168 49 -241 22z"/>
<path d="M3598 3686 c-1 -2 -34 -6 -73 -9 -74 -6 -84 -8 -155 -27 -83 -21
-272 -99 -290 -119 -3 -3 -38 -28 -78 -55 -40 -27 -112 -88 -159 -135 -92 -93
-97 -99 -164 -181 -24 -30 -48 -60 -54 -66 -5 -6 -23 -28 -40 -49 -55 -70
-301 -362 -346 -410 -64 -69 -129 -137 -356 -371 -111 -115 -218 -227 -238
-249 -20 -22 -55 -60 -78 -85 -62 -67 -113 -128 -162 -195 -17 -22 -33 -42
-36 -45 -10 -8 -45 -69 -69 -119 -37 -79 -57 -184 -62 -326 -1 -39 13 -219 21
-260 5 -27 7 -53 5 -57 -2 -3 0 -9 6 -13 6 -4 8 -10 5 -15 -3 -5 0 -21 5 -36
6 -15 13 -39 15 -53 7 -46 15 -77 31 -122 8 -24 17 -51 19 -59 7 -36 72 -169
106 -221 39 -58 147 -154 254 -226 184 -124 397 -177 715 -177 129 1 199 7
278 25 62 14 64 15 87 23 11 5 34 13 50 18 17 6 100 46 187 89 152 76 287 130
358 143 19 3 46 9 60 12 14 4 102 8 195 10 153 2 197 -1 315 -22 19 -3 42 -7
50 -9 8 -1 35 -8 60 -14 25 -7 52 -14 60 -16 8 -2 35 -10 60 -19 25 -9 52 -19
60 -21 8 -2 49 -15 90 -30 41 -14 82 -28 90 -30 8 -2 15 -4 15 -5 0 -1 7 -3
15 -5 8 -2 24 -6 35 -9 97 -25 170 -41 245 -52 194 -28 473 -19 569 18 14 5
37 12 51 15 40 7 173 77 244 127 183 131 336 353 398 575 27 99 29 109 33 221
4 116 -32 305 -65 346 -7 8 -10 14 -7 14 10 0 -66 140 -116 215 -87 129 -114
162 -247 295 -63 64 -105 101 -240 213 -8 6 -44 33 -80 59 -36 26 -72 54 -81
62 -9 9 -21 16 -27 16 -7 0 -12 4 -12 8 0 4 -13 15 -28 24 -26 16 -181 164
-208 200 -24 30 -62 107 -104 208 -25 58 -57 127 -72 153 -16 26 -28 50 -28
53 0 11 -84 128 -159 221 -76 96 -202 229 -271 287 -123 105 -326 209 -450
231 -18 3 -36 8 -40 10 -4 2 -42 7 -86 10 -43 4 -84 8 -91 10 -6 2 -13 2 -15
1z"/>
</g>
</svg>
